Patient4_TMGait_0pt4_03_left_25_EMG.mot
version=1
nRows=13
nColumns=33
inDegrees=no
endheader
time	1LAddLong	2LGlutMax	3LGlutMed	4LIliopsoas	5LSemiMemb	6LBicFemLong	7LRecFem	8LVastMed	9LVastLat	10LGasMed	11LTibAnt	12lTibPost	13LPeroneusLong	14LSol	15LExtDigLong	16LFlexDigLong	17RAddLong	18RGlutMax	19RGlutMed	20RIliopsoas	21RSemiMemb	22RBicFemLong	23RRecFem	24RVastMed	25RVastLat	26RGasMed	27RTibAnt	28RTibPost	29RPeroneusLong	30RSol	31RExtDigLong	32RFlexDigLong
32.85	0.002747	-0.069275	-0.003662	0.018158	0.014954	-0.001068	0.027008	0.007324	-0.14221	-0.00885	0.008392	-0.00824	0.055695	-0.11307	-0.27008	-0.004272	0.008545	0.023956	0.14313	-0.007782	0.28107	0.016479	0.051727	0.007629	-0.005188	-0.010223	-0.057526	-0.015259	0.99701	-0.047607	0.001831	-0.005341
32.851	0.007935	-0.096436	-0.036163	0.014038	0.014954	-0.00885	0.007782	0.000763	-0.14358	0.013275	0.081482	-0.01297	-0.010529	-0.18982	-0.28717	-0.020142	0.005646	-0.037231	-0.86502	0.031738	0.215	0.009766	0.007782	0.021057	0.021057	0.001068	-0.042419	-0.016022	0.37613	0.16876	0.001831	-0.008698
32.852	0.007935	-0.10086	-0.061493	0.012817	0.016632	-0.016785	0.002136	0.001373	-0.12726	0.015717	0.084381	-0.006561	-0.011292	-0.20599	-0.25192	-0.00946	0.005951	-0.049438	-0.65353	-0.034027	0.16357	0.027161	-0.001373	0.031738	0.049591	-0.002441	-0.006866	-0.29755	-0.10132	-0.13107	0.003052	0.000763
32.853	0.011597	-0.11414	-0.040283	0.00824	0.018158	-0.027618	0.018921	0.001984	-0.12726	0.012817	0.088959	-0.00412	-0.00061	-0.121	0.084229	-0.010529	-0.011444	-0.096588	-0.51331	0.016327	-0.11948	0.096436	-0.01358	-0.008392	0.013123	-0.001678	0.002441	0.13046	0.014954	-0.26871	-0.000458	-0.009613
32.854	0.043182	-0.1207	-0.0177	-0.005646	0.01297	-0.027161	0.014191	0.00885	-0.12528	-0.011597	-0.011597	-0.007782	-0.009155	-0.082245	0.24872	-0.008392	-0.010223	-0.072937	-0.40009	0.066071	-0.13428	0.098572	-0.073242	-0.034637	-0.061798	-0.010376	0.033112	0.19348	-0.21454	-0.28183	0.000763	-0.012817
32.855	0.002289	-0.1294	-0.027313	0.00412	0.022125	-0.02533	0.031128	0.001526	-0.13062	-0.03418	-0.16892	-0.004425	0.024261	-0.022278	0.23193	-0.014191	-0.001526	0.025177	-0.072174	0.040588	-0.001068	0.05249	0.023193	-0.02182	-0.11383	0.000305	0.092926	0.061035	-0.11398	-0.12192	0.001526	-0.005493
32.856	0.046387	-0.11749	-0.040131	0.010071	0.008392	-0.043488	0.01709	0.000153	-0.12131	-0.036163	-0.084991	-0.005951	0.036316	-0.091705	0.27374	-0.011902	0.001831	0.030212	-0.25314	0.024414	0.014038	0.06897	0.053253	-0.061493	-0.078125	0.003204	0.069122	0.020599	-0.21576	-0.20859	0.001373	-0.010834
32.857	0.036316	-0.10819	-0.011444	0.007172	0.018463	-0.018463	0.00473	0	-0.11627	-0.018921	-0.053406	-0.001678	0.069275	-0.077972	0.12024	-0.028992	-0.002136	-0.000153	0.099182	-0.095062	-0.000153	0.084229	0.075226	-0.15305	-0.072021	-0.003662	0.053101	-0.027618	-0.029755	-0.54092	0.00351	-0.015259
32.858	-0.015564	-0.11765	-0.023193	-0.021667	0.0177	-0.031586	-0.007324	0.007324	-0.11643	-0.001831	0.00412	-0.018311	0.055542	-0.10971	-0.16571	-0.029449	0.005341	0.03479	0.54733	-0.112	-0.043793	0.045166	-0.042419	-0.13397	-0.040283	-0.014038	0.027313	-0.073395	1.1655	-0.41245	0.003052	-0.012665
32.859	0	-0.11902	-0.061646	-0.03418	0.024872	-0.024719	-0.015106	-0.001984	-0.112	0.001984	0.084534	-0.000458	0.047607	-0.14633	-0.13458	-0.030823	0.01358	0.015717	0.032043	-0.003815	-0.042877	0.026093	-0.24551	-0.12192	0.053101	-0.001373	0.042877	0.068817	-0.60944	0.24918	-0.001373	-0.00061
32.86	0.010834	-0.13382	-0.040283	-0.024261	0.015259	-0.036621	-0.028076	0.008087	-0.10407	-0.012512	0.067902	-0.001373	0.05722	-0.077362	0.079193	-0.034943	0.015717	0.033264	0.019989	0.078735	-0.028839	0.058899	-0.20813	0.006104	0.008087	0.010834	-0.032196	0.012207	-0.90668	0.78644	0.002747	0.005646
32.861	0.00946	-0.13245	-0.042725	0.007019	0.013123	-0.048523	-0.006866	0.007782	-0.12146	0.004272	0.061951	-0.006409	0.018768	-0.048981	0.1181	-0.037079	0.01297	-0.030212	-0.10834	0.053711	-0.030365	0.032501	-0.17181	0.072632	0.040588	0.005951	-0.21576	-0.27695	0.69214	0.60486	0.002289	0.006714
32.862	0.011902	-0.12909	-0.065765	0.030975	0.001221	-0.041656	-0.018158	0.000458	-0.11078	0.003815	0.039215	-0.004425	-0.007172	-0.021515	0.47073	-0.032196	0.002594	-0.050964	0.15182	0.017242	-0.024261	0.059967	-0.15533	0.11139	0.02243	-0.003662	-0.12695	-0.2446	-0.89691	-0.099487	-0.001221	-0.00061
